<svg xmlns="http://www.w3.org/2000/svg" viewBox="0 0 427.05 270.12"><defs><style>.cls-1{fill:#237cbd;}</style></defs><title>Asset 8</title><g id="Layer_2" data-name="Layer 2"><g id="Layer_1-2" data-name="Layer 1"><circle class="cls-1" cx="200.49" cy="60.35" r="15.81"/><circle class="cls-1" cx="215.7" cy="33.31" r="11.96"/><circle class="cls-1" cx="162.53" cy="44.09" r="11.96"/><circle class="cls-1" cx="185.79" cy="37.57" r="7.56"/><circle class="cls-1" cx="134.14" cy="44.09" r="7.56"/><circle class="cls-1" cx="125.55" cy="7.56" r="7.56"/><circle class="cls-1" cx="107.39" cy="12.41" r="7.56"/><circle class="cls-1" cx="62.6" cy="30.02" r="7.56"/><circle class="cls-1" cx="62.6" cy="68.01" r="7.56"/><circle class="cls-1" cx="35.43" cy="106.79" r="7.56"/><circle class="cls-1" cx="13.82" cy="101.87" r="7.56"/><circle class="cls-1" cx="7.56" cy="150.89" r="7.56"/><circle class="cls-1" cx="63.19" cy="206.21" r="7.56"/><circle class="cls-1" cx="65.85" cy="240.32" r="7.56"/><circle class="cls-1" cx="124.92" cy="262.57" r="7.56"/><circle class="cls-1" cx="109.8" cy="253.78" r="7.56"/><circle class="cls-1" cx="146.1" cy="227.41" r="7.56"/><circle class="cls-1" cx="187.48" cy="234.97" r="7.56"/><circle class="cls-1" cx="196.63" cy="251.68" r="7.56"/><circle class="cls-1" cx="13.82" cy="175.98" r="7.56"/><circle class="cls-1" cx="193.35" cy="18.41" r="7.56"/><circle class="cls-1" cx="139.92" cy="24.06" r="11.2"/><circle class="cls-1" cx="111.83" cy="37.14" r="12"/><circle class="cls-1" cx="85.72" cy="21.7" r="11.61"/><circle class="cls-1" cx="47.04" cy="48.32" r="11.61"/><circle class="cls-1" cx="53.42" cy="90.8" r="12.44"/><circle class="cls-1" cx="45.52" cy="129.03" r="11.76"/><circle class="cls-1" cx="55.63" cy="182.69" r="11.76"/><circle class="cls-1" cx="49.6" cy="224.35" r="11.76"/><circle class="cls-1" cx="87.45" cy="247.87" r="11.76"/><circle class="cls-1" cx="114.83" cy="232.36" r="11.76"/><circle class="cls-1" cx="138.5" cy="246.67" r="11.06"/><circle class="cls-1" cx="167.63" cy="225.82" r="11.47"/><circle class="cls-1" cx="217.75" cy="234.14" r="11.47"/><circle class="cls-1" cx="165.98" cy="15" r="13.71"/><circle class="cls-1" cx="83.78" cy="50.33" r="13.62"/><circle class="cls-1" cx="27.04" cy="76.3" r="14.5"/><circle class="cls-1" cx="16.27" cy="127.29" r="13.91"/><circle class="cls-1" cx="33.76" cy="159.4" r="14.97"/><circle class="cls-1" cx="28.8" cy="199.82" r="14.97"/><circle class="cls-1" cx="85.72" cy="218.89" r="13.87"/><circle class="cls-1" cx="199.82" cy="210.2" r="14.97"/><circle class="cls-1" cx="166.25" cy="255.01" r="13.67"/><path class="cls-1" d="M140.77,97.24c9.38,0,27.72,3.92,27.72,16.39v8.14H156.23v-4.12c0-5.36-8.76-7.83-15.15-7.83-13.09,0-23.39,9.37-23.39,24.62,0,14.33,10.51,25.87,23.8,25.87a31.22,31.22,0,0,0,22.16-9.69l7.11,9.69a40.56,40.56,0,0,1-29.47,12.57c-22.37,0-37.62-16.79-37.62-38.44C103.67,113.32,119.54,97.24,140.77,97.24Z"/><path class="cls-1" d="M182,132.49a2,2,0,0,0-2.26-2.27H175.6V119.09h12.47c4.85,0,6.91,2.16,6.91,6.9v24.22c0,6.39,1.65,10.72,8.14,10.72,9.48,0,14.74-8.35,14.74-17.73V119.09h13.08v39.26a2.06,2.06,0,0,0,2.27,2.27h4.12v11H225.27c-4.53,0-6.9-2.16-6.9-5.87v-1.44c0-1.24.1-2.37.1-2.37h-.21c-2.47,5.46-9.06,10.92-18.13,10.92-11.23,0-18.14-5.67-18.14-20Z"/><path class="cls-1" d="M248,132.49a2,2,0,0,0-2.27-2.27h-4.12V119.09h11.95c4.64,0,7,2,7,6.39v3.09a23.55,23.55,0,0,1-.21,3.3h.21c2.37-7.53,8.65-13.5,16.69-13.5a17.17,17.17,0,0,1,2.37.2v12.89a22.81,22.81,0,0,0-3.19-.21,14.79,14.79,0,0,0-14.33,11,31.94,31.94,0,0,0-1.13,8.56v20.81H248Z"/><path class="cls-1" d="M313.38,138.67H315v-.41c0-7.53-3-10.31-9.68-10.31-2.37,0-7,.62-7,3.51v2.78H286.18v-5.57c0-9.79,13.81-10.82,19.27-10.82,17.52,0,22.67,9.17,22.67,20.92v19.58a2.06,2.06,0,0,0,2.27,2.27h4.12v11H322.76c-4.84,0-6.7-2.67-6.7-5.77a21.29,21.29,0,0,1,.11-2.26H316s-4,9.27-15.87,9.27c-9.38,0-17.93-5.87-17.93-16.38C282.16,140,304.83,138.67,313.38,138.67Zm-10.1,24c7,0,12-7.42,12-13.81v-1.23H313c-6.8,0-17.62.92-17.62,8.24C295.35,159.38,297.93,162.68,303.28,162.68Z"/><path class="cls-1" d="M345.23,129.5h-6.8V119.09h7.11V104.77h12.78v14.32h11.95V129.5H358.32v21.22c0,8.66,6.8,9.9,10.4,9.9a11.85,11.85,0,0,0,2.37-.21v11.44a24,24,0,0,1-4,.31c-7.31,0-21.84-2.16-21.84-19.78Z"/><path class="cls-1" d="M403.76,117.85c15.05,0,23.29,11,23.29,24.94,0,1.55-.31,4.85-.31,4.85H390.47c1,9.27,7.83,14.11,15.76,14.11,8.45,0,14.74-5.87,14.74-5.87l5.46,9.07a32,32,0,0,1-21.12,7.93c-17.42,0-28.24-12.57-28.24-27.51C377.07,129.19,388,117.85,403.76,117.85Zm9.89,20.72c-.2-6.29-4.53-10.62-9.89-10.62-6.7,0-11.44,4-12.88,10.62Z"/></g></g></svg>
